<svg xmlns="http://www.w3.org/2000/svg" viewBox="0 0 191 167.931">
  <defs>
    <style>
      .cls-1, .cls-3, .cls-5, .cls-6 {
        fill: #fff;
      }

      .cls-1, .cls-2, .cls-3, .cls-6 {
        stroke: rgba(165,65,123,0.8);
      }

      .cls-1, .cls-2 {
        stroke-width: 4px;
      }

      .cls-2, .cls-8 {
        fill: none;
      }

      .cls-3 {
        stroke-linecap: square;
        stroke-width: 5px;
      }

      .cls-4 {
        fill: rgba(165,65,123,0.8);
        font-size: 50px;
        font-family: Tahoma;
      }

      .cls-5 {
        stroke: rgba(165,65,123,0.83);
      }

      .cls-7 {
        stroke: none;
      }
    </style>
  </defs>
  <g id="Group_1" data-name="Group 1" transform="translate(-166.655 -289)">
    <g id="Rectangle_1" data-name="Rectangle 1" class="cls-1" transform="translate(166.655 289.931)">
      <rect class="cls-7" width="123" height="110"/>
      <rect class="cls-8" x="2" y="2" width="119" height="106"/>
    </g>
    <g id="Rectangle_2" data-name="Rectangle 2" class="cls-1" transform="translate(234.655 346.931)">
      <rect class="cls-7" width="123" height="110"/>
      <rect class="cls-8" x="2" y="2" width="119" height="106"/>
    </g>
    <line id="Line_9" data-name="Line 9" class="cls-2" x2="53" transform="translate(236.5 397.5)"/>
    <line id="Line_10" data-name="Line 10" class="cls-2" y2="50" transform="translate(287.5 349.5)"/>
    <rect id="Rectangle_45" data-name="Rectangle 45" class="cls-3" width="30" height="37" rx="14" transform="translate(304 407)"/>
    <text id="A" class="cls-4" transform="translate(247 395)"><tspan x="0" y="50">A</tspan></text>
    <g id="Rectangle_58" data-name="Rectangle 58" class="cls-5" transform="matrix(0.839, 0.545, -0.545, 0.839, 302.942, 381.317)">
      <rect class="cls-7" width="14" height="14" rx="4"/>
      <rect class="cls-8" x="0.5" y="0.5" width="13" height="13" rx="3.5"/>
    </g>
    <g id="Rectangle_62" data-name="Rectangle 62" class="cls-6" transform="matrix(0.839, 0.545, -0.545, 0.839, 306.942, 381.317)">
      <rect class="cls-7" width="14" height="14" rx="4"/>
      <rect class="cls-8" x="0.5" y="0.5" width="13" height="13" rx="3.5"/>
    </g>
    <g id="Rectangle_63" data-name="Rectangle 63" class="cls-5" transform="matrix(0.839, 0.545, -0.545, 0.839, 326.942, 381.317)">
      <rect class="cls-7" width="14" height="14" rx="4"/>
      <rect class="cls-8" x="0.5" y="0.5" width="13" height="13" rx="3.5"/>
    </g>
    <g id="Rectangle_64" data-name="Rectangle 64" class="cls-6" transform="matrix(0.839, 0.545, -0.545, 0.839, 330.942, 381.317)">
      <rect class="cls-7" width="14" height="14" rx="4"/>
      <rect class="cls-8" x="0.5" y="0.5" width="13" height="13" rx="3.5"/>
    </g>
    <text id="S" class="cls-4" transform="translate(196 289)"><tspan x="0" y="50">S</tspan></text>
    <text id="A-2" data-name="A" class="cls-4" transform="translate(247 289)"><tspan x="0" y="50">A</tspan></text>
    <text id="R" class="cls-4" transform="translate(247 342)"><tspan x="0" y="50">R</tspan></text>
  </g>
</svg>
